<svg width="121" height="121" viewBox="0 0 121 121" fill="none" xmlns="http://www.w3.org/2000/svg">
<g clip-path="url(#clip0_519_34)">
<path d="M98.3218 84.4036L109.612 85.6308L115.012 81.9492L118.138 85.6308L116.637 93.3992L114.919 99.5353L104.501 94.2443L96.1128 93.485L98.3218 84.4036Z" fill="#FABC8E"/>
<path d="M41.0791 71.4967L68.3231 71.0058L101.458 84.996L97.0398 94.5682L67.0959 86.2232L20.7074 99.4771L27.0889 68.0605L41.0791 71.4967Z" fill="#342C33"/>
<path d="M115.806 85.4001L110.391 84.9786L117.279 70.4282C117.279 70.4282 120.469 69.3015 120.96 72.8101C121.451 76.3188 117.264 100.076 116.037 100.076C114.81 100.076 110.692 97.6735 110.692 97.6735L116.788 86.1365L115.806 85.4001Z" fill="#342C33"/>
<path d="M21.8967 38.6656L19.1969 29.5843L11.3427 29.3389L8.152 40.6292L21.8967 38.6656Z" fill="#FABC8E"/>
<path d="M9.83992 37.401L22.6029 36.9102L26.5601 45.0467L32.666 81.0897L0.635863 88.3302C0.635863 88.3302 -1.32767 48.0778 3.09029 42.4326C7.50824 36.7874 9.83992 37.401 9.83992 37.401Z" fill="#FFC5E0"/>
<path d="M54.0517 69.0147C56.9423 69.007 59.2893 70.4923 59.2939 72.3319C59.2985 74.1715 56.9591 75.6685 54.0675 75.6758C52.9124 75.6945 51.7697 75.4364 50.7349 74.923L38.4868 74.8008L38.5475 69.9575L50.722 69.7849C51.7545 69.2659 52.8962 69.0018 54.0517 69.0147Z" fill="#FABC8E"/>
<path d="M16.4893 40.0492L26.401 64.6977L49.4126 67.7817L49.0372 76.2081L15.526 74.1935L6.2047 45.9321L16.4893 40.0492Z" fill="#FFC5E0"/>
<path d="M8.13291 75.9615C8.13291 75.9615 -1.49872 83.9866 2.07423 88.8528C5.64719 93.719 17.8002 102.433 23.2876 99.7305C28.7751 97.0277 40.1703 77.4947 40.1703 77.4947L43.1502 97.5032L50.951 96.8141C50.951 96.8141 56.6171 68.5509 51.3922 64.2168C46.1672 59.8826 22.3789 67.5442 22.3789 67.5442L8.13291 75.9615Z" fill="#342C33"/>
<path d="M49.0567 94.0576L51.2914 100.996L55.9452 107.52L52.3782 112.862L41.038 105.392L41.0771 101.551L42.8578 99.1538L44.112 94.5562L49.0567 94.0576Z" fill="#FABC8E"/>
<path d="M52.5699 110.332L55.4157 105.706L65.2205 118.474C65.2205 118.474 64.7672 121.827 61.4211 120.663C58.075 119.499 37.3267 108.86 37.8867 107.768C38.4466 106.676 40.7459 100.794 40.7459 100.794L51.4667 110.87L52.5699 110.332Z" fill="#342C33"/>
<path d="M46.6066 75.7912C49.4831 76.0764 51.6676 77.7919 51.4858 79.6225C51.3039 81.4531 48.8249 82.7053 45.9474 82.4196C44.7964 82.3212 43.6857 81.9486 42.7082 81.333L30.5356 79.9705L31.0867 75.1582L43.216 76.2201C44.2957 75.8084 45.4584 75.6613 46.6066 75.7912Z" fill="#FABC8E"/>
<path d="M12.1717 43.1689L19.535 68.6949L42.1156 74.0946L40.8884 82.4396L7.75377 77.0399L1.34394 47.9795L12.1717 43.1689Z" fill="#FFC5E0"/>
<path d="M16.2677 32.3025C10.507 32.3025 5.83713 27.6326 5.83713 21.872C5.83713 16.1113 10.507 11.4414 16.2677 11.4414C22.0283 11.4414 26.6982 16.1113 26.6982 21.872C26.6982 27.6326 22.0283 32.3025 16.2677 32.3025Z" fill="#FABC8E"/>
<path d="M15.3806 7.95071C15.6824 8.12689 16.0866 7.86034 16.1834 7.52453C16.2802 7.18871 16.1675 6.83217 16.0557 6.50105C15.8681 5.94543 15.6805 5.3898 15.4929 4.83417C15.0938 3.65198 14.6701 2.42848 13.8057 1.52868C12.501 0.17057 10.4275 -0.174925 8.56089 0.0753736C6.16384 0.396806 3.79877 1.69478 2.68423 3.84116C1.56966 5.98754 2.04417 8.9825 4.05811 10.3216C1.18782 13.6115 0.187271 17.2779 0.34526 21.641C0.503237 26.0041 5.25796 30.0196 8.35867 33.0932C9.05111 32.6734 9.68063 30.7063 9.29984 29.9917C8.91905 29.2771 9.46463 28.4492 8.99305 27.7909C8.52147 27.1327 8.12692 28.1808 8.60368 27.5263C8.90452 27.1133 7.73034 26.1632 8.17753 25.916C10.3405 24.7204 11.0599 22.0243 12.4184 19.9598C14.0569 17.4695 16.8614 15.7831 19.8292 15.5033C21.4641 15.3492 23.1909 15.6283 24.5309 16.5775C25.8709 17.5266 26.7385 19.2227 26.4277 20.8351C27.2325 20.018 27.6331 18.8205 27.482 17.6836C27.3309 16.5467 26.6314 15.4954 25.6412 14.9168C26.2433 12.9256 25.7275 10.6352 24.3299 9.0943C22.9323 7.55345 17.2631 7.81589 15.2228 8.22141L15.3806 7.95071Z" fill="#342C33"/>
<path d="M15.0637 15.5635C12.3614 15.8552 10.4102 18.196 8.76258 20.3578C7.81294 21.6038 6.8182 22.9798 6.84205 24.5462C6.86615 26.1299 7.92502 27.4883 8.43108 28.9892C9.25823 31.4424 8.45207 34.3612 6.48306 36.0422C8.42867 36.4114 10.5319 34.9526 10.8678 33.0009C11.2588 30.729 9.53655 28.5362 9.74052 26.2399C9.92021 24.2168 11.5145 22.6598 12.8698 21.1472C14.2252 19.6346 15.4981 17.6273 14.8746 15.6944L15.0637 15.5635Z" fill="#342C33"/>
</g>
<defs>
<clipPath id="clip0_519_34">
<rect width="121" height="121" fill="white" transform="matrix(-1 0 0 1 121 0)"/>
</clipPath>
</defs>
</svg>
