<svg width="90" height="46" viewBox="0 0 90 46" fill="none" xmlns="http://www.w3.org/2000/svg">
<path d="M54.7279 27.5039V45.2908H10.1659C5.08865 45.2908 0.957764 41.3011 0.957764 36.3973C0.957764 31.4936 5.08865 27.5039 10.1659 27.5039H54.7279Z" fill="#F9F7F6"/>
<path d="M55.8224 45.1533C55.8223 45.3347 55.7502 45.5087 55.6219 45.6369C55.4937 45.7652 55.3197 45.8373 55.1383 45.8374H9.37214C6.88649 45.8374 4.50266 44.85 2.74504 43.0923C0.987421 41.3347 0 38.9508 0 36.4651C0 33.9794 0.987421 31.5955 2.74504 29.8379C4.50266 28.0802 6.88649 27.0928 9.37214 27.0928H55.1383C55.3197 27.0928 55.4937 27.1649 55.622 27.2931C55.7503 27.4214 55.8224 27.5954 55.8224 27.7769C55.8224 27.9583 55.7503 28.1323 55.622 28.2606C55.4937 28.3889 55.3197 28.461 55.1383 28.461H9.37214C7.24936 28.461 5.21353 29.3043 3.7125 30.8053C2.21147 32.3064 1.3682 34.3423 1.3682 36.4651C1.3682 38.5879 2.21147 40.6238 3.7125 42.1248C5.21353 43.6259 7.24936 44.4692 9.37214 44.4692H55.1383C55.3197 44.4692 55.4937 44.5413 55.6219 44.6696C55.7502 44.7979 55.8223 44.9719 55.8224 45.1533Z" fill="url(#paint0_linear_115_21)"/>
<path d="M54.7278 31.6076H6.84092C6.80463 31.6076 6.76984 31.5932 6.74418 31.5676C6.71852 31.5419 6.7041 31.5071 6.7041 31.4708C6.7041 31.4345 6.71852 31.3997 6.74418 31.3741C6.76984 31.3484 6.80463 31.334 6.84092 31.334H54.7278C54.7641 31.334 54.7989 31.3484 54.8245 31.3741C54.8502 31.3997 54.8646 31.4345 54.8646 31.4708C54.8646 31.5071 54.8502 31.5419 54.8245 31.5676C54.7989 31.5932 54.7641 31.6076 54.7278 31.6076Z" fill="#2D262C"/>
<path d="M54.7279 34.8918H6.84104C6.80476 34.8918 6.76996 34.8774 6.7443 34.8517C6.71864 34.8261 6.70422 34.7913 6.70422 34.755C6.70422 34.7187 6.71864 34.6839 6.7443 34.6582C6.76996 34.6326 6.80476 34.6182 6.84104 34.6182H54.7279C54.7642 34.6182 54.799 34.6326 54.8246 34.6582C54.8503 34.6839 54.8647 34.7187 54.8647 34.755C54.8647 34.7913 54.8503 34.8261 54.8246 34.8517C54.799 34.8774 54.7642 34.8918 54.7279 34.8918Z" fill="#2D262C"/>
<path d="M54.7279 38.175H6.84104C6.80476 38.175 6.76996 38.1606 6.7443 38.1349C6.71864 38.1093 6.70422 38.0745 6.70422 38.0382C6.70422 38.0019 6.71864 37.9671 6.7443 37.9414C6.76996 37.9158 6.80476 37.9014 6.84104 37.9014H54.7279C54.7642 37.9014 54.799 37.9158 54.8246 37.9414C54.8503 37.9671 54.8647 38.0019 54.8647 38.0382C54.8647 38.0745 54.8503 38.1093 54.8246 38.1349C54.799 38.1606 54.7642 38.175 54.7279 38.175Z" fill="#2D262C"/>
<path d="M54.7278 41.4592H6.84092C6.80463 41.4592 6.76984 41.4448 6.74418 41.4191C6.71852 41.3935 6.7041 41.3587 6.7041 41.3224C6.7041 41.2861 6.71852 41.2513 6.74418 41.2256C6.76984 41.2 6.80463 41.1855 6.84092 41.1855H54.7278C54.7641 41.1855 54.7989 41.2 54.8245 41.2256C54.8502 41.2513 54.8646 41.2861 54.8646 41.3224C54.8646 41.3587 54.8502 41.3935 54.8245 41.4191C54.7989 41.4448 54.7641 41.4592 54.7278 41.4592Z" fill="#2D262C"/>
<path d="M89.1677 30.8519L78.008 44.7022L43.3085 16.7426C39.355 13.557 38.6415 7.85844 41.7181 4.04C44.7948 0.221569 50.5146 -0.293288 54.4681 2.89234L89.1677 30.8519Z" fill="#F9F7F6"/>
<path d="M78.9462 45.2821C78.8323 45.4233 78.6671 45.5135 78.4867 45.5329C78.3063 45.5523 78.1256 45.4993 77.9843 45.3855L42.3471 16.6704C40.4116 15.1108 39.1749 12.8462 38.909 10.3748C38.6432 7.90334 39.37 5.42752 40.9295 3.49196C42.489 1.5564 44.7536 0.319654 47.225 0.0537935C49.6964 -0.212067 52.1722 0.514737 54.1077 2.07431L89.7449 30.7895C89.8149 30.8458 89.8731 30.9154 89.9162 30.9943C89.9593 31.0731 89.9865 31.1597 89.9961 31.2491C90.0057 31.3384 89.9977 31.4288 89.9724 31.515C89.9471 31.6013 89.905 31.6817 89.8487 31.7517C89.7923 31.8216 89.7226 31.8798 89.6438 31.9229C89.5649 31.9659 89.4783 31.993 89.3889 32.0026C89.2996 32.0122 89.2092 32.0041 89.123 31.9788C89.0368 31.9534 88.9564 31.9113 88.8864 31.8549L53.2492 3.13972C52.4308 2.47974 51.4904 1.98747 50.4817 1.69103C49.473 1.39458 48.4158 1.29978 47.3704 1.41202C46.3251 1.52427 45.3121 1.84137 44.3893 2.3452C43.4665 2.84904 42.6521 3.52975 41.9924 4.34843C41.3328 5.16712 40.8409 6.10775 40.5449 7.11658C40.2488 8.12542 40.1544 9.1827 40.2671 10.228C40.3797 11.2733 40.6972 12.2862 41.2014 13.2088C41.7056 14.1314 42.3866 14.9456 43.2056 15.605L78.8427 44.3201C78.984 44.434 79.0742 44.5993 79.0936 44.7797C79.113 44.96 79.06 45.1407 78.9462 45.2821Z" fill="url(#paint1_linear_115_21)"/>
<path d="M86.5923 34.0479L49.3038 4.00215C49.2898 3.99088 49.2782 3.97696 49.2695 3.96119C49.2609 3.94542 49.2555 3.92811 49.2536 3.91024C49.2517 3.89238 49.2533 3.87431 49.2584 3.85707C49.2634 3.83983 49.2718 3.82375 49.2831 3.80976C49.2944 3.79577 49.3083 3.78414 49.324 3.77553C49.3398 3.76692 49.3571 3.7615 49.375 3.75957C49.3929 3.75765 49.4109 3.75927 49.4282 3.76433C49.4454 3.76939 49.4615 3.7778 49.4755 3.78907L86.764 33.8348C86.778 33.8461 86.7897 33.86 86.7983 33.8758C86.807 33.8916 86.8124 33.9089 86.8143 33.9268C86.8163 33.9446 86.8147 33.9627 86.8096 33.98C86.8045 33.9972 86.7961 34.0133 86.7848 34.0273C86.7736 34.0413 86.7596 34.053 86.7438 34.0616C86.7281 34.0702 86.7107 34.0756 86.6929 34.0775C86.675 34.0794 86.6569 34.0778 86.6396 34.0727C86.6224 34.0676 86.6063 34.0592 86.5923 34.0479V34.0479Z" fill="#2D262C"/>
<path d="M84.5321 36.6044L47.2436 6.55868C47.2154 6.5359 47.1974 6.50285 47.1935 6.4668C47.1897 6.43074 47.2003 6.39464 47.223 6.36641C47.2458 6.33817 47.2788 6.32013 47.3149 6.31622C47.3509 6.31232 47.387 6.32289 47.4153 6.3456L84.7038 36.3914C84.7178 36.4026 84.7295 36.4165 84.7381 36.4323C84.7468 36.4481 84.7522 36.4654 84.7541 36.4833C84.7561 36.5012 84.7545 36.5192 84.7494 36.5365C84.7443 36.5538 84.7359 36.5699 84.7246 36.5839C84.7134 36.5979 84.6994 36.6095 84.6837 36.6181C84.6679 36.6267 84.6505 36.6321 84.6327 36.6341C84.6148 36.636 84.5967 36.6343 84.5794 36.6292C84.5622 36.6242 84.5461 36.6157 84.5321 36.6044Z" fill="#2D262C"/>
<path d="M82.4718 39.1622L45.1833 9.11641C45.1551 9.09364 45.137 9.06058 45.1331 9.0245C45.1292 8.98842 45.1398 8.95228 45.1626 8.92403C45.1854 8.89577 45.2184 8.87771 45.2545 8.87383C45.2906 8.86995 45.3267 8.88056 45.355 8.90333L82.6435 38.9491C82.6575 38.9604 82.6692 38.9743 82.6778 38.99C82.6864 39.0058 82.6918 39.0231 82.6937 39.041C82.6956 39.0589 82.694 39.0769 82.689 39.0942C82.6839 39.1114 82.6755 39.1275 82.6642 39.1415C82.6529 39.1555 82.639 39.1671 82.6233 39.1757C82.6075 39.1843 82.5902 39.1897 82.5723 39.1917C82.5545 39.1936 82.5364 39.192 82.5191 39.1869C82.5019 39.1818 82.4858 39.1734 82.4718 39.1622V39.1622Z" fill="#2D262C"/>
<path d="M80.4117 41.7188L43.1231 11.673C43.1091 11.6618 43.0975 11.6479 43.0889 11.6321C43.0803 11.6163 43.0748 11.599 43.0729 11.5811C43.071 11.5633 43.0726 11.5452 43.0777 11.528C43.0827 11.5107 43.0912 11.4947 43.1024 11.4807C43.1137 11.4667 43.1276 11.455 43.1434 11.4464C43.1592 11.4378 43.1765 11.4324 43.1943 11.4305C43.2122 11.4286 43.2303 11.4302 43.2475 11.4352C43.2647 11.4403 43.2808 11.4487 43.2948 11.46L80.5834 41.5057C80.5974 41.517 80.609 41.5309 80.6177 41.5467C80.6263 41.5624 80.6317 41.5798 80.6337 41.5976C80.6356 41.6155 80.634 41.6336 80.6289 41.6509C80.6239 41.6681 80.6155 41.6842 80.6042 41.6982C80.5929 41.7122 80.579 41.7239 80.5632 41.7325C80.5474 41.7411 80.5301 41.7465 80.5122 41.7484C80.4943 41.7503 80.4762 41.7487 80.459 41.7436C80.4417 41.7385 80.4257 41.7301 80.4117 41.7188Z" fill="#2D262C"/>
<defs>
<linearGradient id="paint0_linear_115_21" x1="2" y1="36" x2="53.5" y2="35.9994" gradientUnits="userSpaceOnUse">
<stop stop-color="#ff4c9f"/>
<stop offset="1" stop-color="#0a93ce"/>
</linearGradient>
<linearGradient id="paint1_linear_115_21" x1="42" y1="3" x2="82.5005" y2="37.4994" gradientUnits="userSpaceOnUse">
<stop stop-color="#0a93ce"/>
<stop offset="0.953225" stop-color="#ff4c9f"/>
</linearGradient>
</defs>
</svg>
