<svg width="70" height="214" viewBox="0 0 70 214" fill="none" xmlns="http://www.w3.org/2000/svg">
<path d="M2.03296 208.137H7.27666L9.77161 187.911H2.03245L2.03296 208.137Z" fill="#FABC8E"/>
<path d="M0.695941 213.219L17.604 213.219V213.005C17.6039 211.259 16.9105 209.586 15.6763 208.351C14.4421 207.117 12.7683 206.424 11.0229 206.424H11.0225L0.695655 206.424L0.695941 213.219Z" fill="#342C33"/>
<path d="M53.1413 207.722L58.113 206.055L54.0492 186.085L46.7115 188.545L53.1413 207.722Z" fill="#FABC8E"/>
<path d="M53.4889 212.965L69.5199 207.59L69.4519 207.387C68.897 205.733 67.7075 204.366 66.1451 203.588C64.5827 202.81 62.7752 202.685 61.1203 203.24L61.1199 203.24L51.3288 206.523L53.4889 212.965Z" fill="#342C33"/>
<path d="M46.677 103.607L58.0323 199.667L46.895 200.606C46.895 200.606 29.3759 106.162 23.975 117.349C18.5741 128.537 11.9568 198.509 11.9568 198.509H0.903286C0.903286 198.509 -1.93131 89.3335 9.64207 83.9326L46.677 103.607Z" fill="#342C33"/>
<path d="M17.2442 24.4687C16.1722 18.3837 20.236 12.5818 26.3211 11.5097C32.4061 10.4377 38.208 14.5016 39.28 20.5866C40.352 26.6716 36.2882 32.4735 30.2032 33.5455C24.1181 34.6176 18.3162 30.5537 17.2442 24.4687Z" fill="#FABC8E"/>
<path d="M34.9107 37.832L20.6368 38.9893C20.6368 38.9893 9.25632 39.1822 4.62695 42.2685C-0.00241024 45.3547 9.06343 64.4508 9.06343 64.4508C9.06343 64.4508 11.4203 72.022 9.64208 75.4455C3.87221 86.5538 4.72766 95.1082 4.72766 95.1082C4.72766 95.1082 16.5861 97.8207 37.0324 103.222C37.0324 103.222 49.7632 108.237 49.3774 105.536C48.9916 102.836 45.1338 71.9735 45.1338 71.9735V39.9538L34.9107 37.832Z" 
fill="#ffc5e0"/>
<path d="M9.94087 21.3149C10.512 18.129 11.7913 13.6095 14.6413 10.1829C14.5515 10.1835 14.4621 10.1874 14.3723 10.1848C13.3928 10.1562 12.2783 9.84729 11.8736 8.95491C11.7431 8.59745 11.7104 8.21157 11.7792 7.83726C11.8479 7.46295 12.0154 7.1138 12.2644 6.82602C12.7696 6.25753 13.3738 5.78544 14.0476 5.43272C13.3602 5.85002 12.3887 6.23763 11.8399 5.64983C11.6989 5.47261 11.6114 5.25886 11.5876 5.03366C11.5638 4.80846 11.6046 4.58112 11.7054 4.37833C11.9136 3.97598 12.2061 3.62322 12.5628 3.34403C13.7184 2.32205 14.9826 1.42998 16.3327 0.683837C17.378 0.106299 18.7531 -0.357471 19.6914 0.381324C20.6473 1.13396 20.4938 2.59953 20.2482 3.79114C20.7835 3.47816 21.3853 3.29653 22.0044 3.26116C22.3137 3.25232 22.6166 3.35045 22.862 3.53898C23.1074 3.72751 23.2803 3.99492 23.3515 4.29608C23.3604 4.53373 23.3077 4.76966 23.1987 4.98101C23.0897 5.19236 22.9279 5.37199 22.7291 5.50248C26.4178 4.89589 31.131 5.58417 37.1567 8.37223C37.1567 8.37223 42.9992 10.3197 43.296 18.0107C43.3261 19.2408 43.1896 20.4693 42.8904 21.6628C42.5612 23.057 41.3902 29.8968 42.7947 32.661L35.7587 35.1681L35.678 30.9535C41.1465 23.0597 38.4451 20.163 36.3159 15.4154C36.3123 15.4067 36.3065 15.3992 36.2989 15.3937C36.2914 15.3882 36.2825 15.385 36.2732 15.3843C36.2639 15.3836 36.2545 15.3855 36.2463 15.3898C36.238 15.3941 36.231 15.4006 36.2263 15.4086C35.8328 16.0838 34.3249 18.3982 29.1359 18.3982L31.141 16.393C31.141 16.393 22.3183 20.0023 19.11 20.0023C19.11 20.0023 16.7038 21.6064 19.11 24.0127C21.5161 26.4189 26.7824 29.9605 23.9751 34.3719C21.1678 38.7833 21.4096 40.3484 21.4096 40.3484L14.993 36.7391C14.993 36.7391 11.0738 28.9849 10.3787 26.7014C9.80765 24.9661 9.65756 23.1197 9.94087 21.3149V21.3149Z" fill="#342C33"/>
<path d="M53.0601 62.6025L44.0779 65.1688L44.0213 80.3216L35.6002 109.386C34.9262 109.919 34.411 110.627 34.1106 111.432C33.8102 112.237 33.7361 113.109 33.8963 113.953C34.0565 114.798 34.4448 115.582 35.0193 116.221C35.5937 116.86 36.3322 117.33 37.1546 117.579C37.9771 117.828 38.8521 117.847 39.6846 117.634C40.5171 117.421 41.2753 116.984 41.877 116.37C42.4787 115.757 42.9008 114.99 43.0975 114.154C43.2943 113.317 43.2582 112.443 42.9931 111.625L53.0601 81.5367V62.6025Z" fill="#FABC8E"/>
<path d="M3.22891 62.9209L10.716 64.7409L10.7727 79.8936L19.1937 108.958C19.8677 109.491 20.3829 110.199 20.6833 111.004C20.9837 111.809 21.0578 112.681 20.8976 113.525C20.7375 114.37 20.3491 115.154 19.7747 115.793C19.2003 116.432 18.4617 116.902 17.6393 117.151C16.8169 117.4 15.9419 117.419 15.1094 117.206C14.2769 116.993 13.5186 116.556 12.917 115.942C12.3153 115.329 11.8931 114.562 11.6964 113.726C11.4996 112.889 11.5357 112.015 11.8008 111.197L1.73385 81.1087L3.22891 62.9209Z" fill="#FABC8E"/>
<path d="M14.4646 40.7261L12.6091 40.1211C11.5674 39.7814 10.4343 39.86 9.44944 40.3403V40.3403C9.44944 40.3403 4.04851 40.7261 3.27695 44.5839C2.50539 48.4417 0.628898 82.1609 0.628898 82.1609L12.0689 78.5209L14.4646 40.7261Z" 
fill="#ffc5e0"/>
<path d="M40.5047 40.7252L43.7889 40.56L44.8289 40.04C44.8289 40.04 50.9207 40.7252 51.6923 44.583C52.4639 48.4408 54.7089 83.2 54.7089 83.2L43.2689 80.08L40.5047 40.7252Z" 
fill="#ffc5e0"/>
</svg>
