<svg width="59" height="160" viewBox="0 0 59 160" fill="none" xmlns="http://www.w3.org/2000/svg">
<path d="M19.2772 155.162H14.0665L11.5878 135.063H19.2781L19.2772 155.162Z" fill="#FABC8E"/>
<path d="M10.3445 153.673H20.3936V160H4.01733C4.01733 159.169 4.181 158.346 4.49897 157.579C4.81694 156.811 5.28299 156.114 5.87053 155.526C6.45806 154.939 7.15557 154.472 7.92322 154.154C8.69087 153.837 9.51363 153.673 10.3445 153.673Z" fill="#342C33"/>
<path d="M40.9531 155.162H35.7424L33.2637 135.063H40.954L40.9531 155.162Z" fill="#FABC8E"/>
<path d="M32.0204 153.673H42.0695V160H25.6932C25.6932 159.169 25.8569 158.346 26.1749 157.579C26.4928 156.811 26.9589 156.114 27.5464 155.526C28.134 154.939 28.8315 154.472 29.5991 154.154C30.3668 153.837 31.1895 153.673 32.0204 153.673Z" fill="#342C33"/>
<path d="M41.3167 150.541H36.0125C35.5334 150.539 35.0725 150.357 34.72 150.033C34.3675 149.709 34.1488 149.264 34.1066 148.787L29.6116 94.6402C29.5985 94.4828 29.5274 94.3359 29.4121 94.2279C29.2968 94.1199 29.1456 94.0586 28.9876 94.0558C28.8297 94.053 28.6764 94.1089 28.5573 94.2128C28.4383 94.3166 28.362 94.4609 28.3433 94.6178L21.8876 148.855C21.8321 149.32 21.6081 149.748 21.2581 150.059C20.9082 150.369 20.4565 150.541 19.9884 150.541H13.4755C12.9703 150.54 12.486 150.34 12.128 149.984C11.7699 149.628 11.5671 149.144 11.5638 148.639C11.5495 145.232 11.5262 141.801 11.503 138.369C11.2963 107.8 11.0826 76.1918 17.4654 63.8085L17.5236 63.6956L40.5564 63.3018L40.6142 63.4284C47.5829 78.6568 45.4678 112.677 43.4223 145.577L43.2254 148.747C43.1945 149.233 42.9801 149.689 42.6256 150.022C42.2711 150.355 41.8031 150.541 41.3167 150.541Z" fill="#342C33"/>
<path d="M30.4052 22.6034C36.1704 22.6034 40.8441 17.9297 40.8441 12.1645C40.8441 6.39924 36.1704 1.72559 30.4052 1.72559C24.64 1.72559 19.9663 6.39924 19.9663 12.1645C19.9663 17.9297 24.64 22.6034 30.4052 22.6034Z" fill="#FABC8E"/>
<path d="M15.8307 65.6142L16.1184 53.6457L14.0475 44.3073C13.5245 41.9949 13.555 39.5917 14.1367 37.2934C14.7183 34.9951 15.8346 32.8667 17.3947 31.0815C18.9124 29.3053 20.8286 27.9129 22.9868 27.0181C25.145 26.1232 27.4842 25.7512 29.8135 25.9323H29.8136C29.9639 25.9439 30.1147 25.9565 30.2658 25.9701C32.2561 26.1492 34.1899 26.7273 35.9519 27.6698C37.714 28.6123 39.2683 29.8999 40.5221 31.4559C41.8021 33.0206 42.754 34.827 43.3209 36.7675C43.8878 38.708 44.0583 40.7427 43.822 42.7504L41.3168 64.6459L15.8307 65.6142Z" 
fill="#ffc5e0"/>
<path d="M6.96342 87.0661C7.4559 86.6816 7.85806 86.1937 8.14161 85.637C8.42516 85.0802 8.58318 84.468 8.60455 83.8436C8.62592 83.2191 8.51012 82.5976 8.2653 82.0227C8.02047 81.4479 7.65259 80.9337 7.18755 80.5164L13.0648 66.5117L5.30799 67.9685L0.916034 81.0443C0.266789 81.872 -0.0562754 82.9091 0.00804508 83.9591C0.0723656 85.0091 0.519601 85.999 1.26502 86.7413C2.01044 87.4835 3.00224 87.9266 4.05249 87.9864C5.10274 88.0463 6.13848 87.7188 6.96342 87.0661Z" fill="#FABC8E"/>
<path d="M51.3112 88.7432C50.8414 88.3313 50.4677 87.8214 50.2162 87.2494C49.9648 86.6774 49.8419 86.0572 49.8561 85.4326C49.8703 84.8079 50.0213 84.194 50.2984 83.634C50.5755 83.074 50.9721 82.5816 51.4601 82.1914L46.3892 67.875L54.0505 69.7708L57.6914 83.0753C58.2925 83.9386 58.5561 84.9924 58.4321 86.037C58.3081 87.0816 57.8053 88.0445 57.0189 88.7431C56.2324 89.4418 55.217 89.8277 54.165 89.8277C53.1131 89.8277 52.0977 89.4419 51.3112 88.7432Z" fill="#FABC8E"/>
<path d="M50.5523 80.2036C50.1424 80.2038 49.7432 80.0723 49.4138 79.8283C49.0843 79.5844 48.8421 79.241 48.7227 78.8488L41.6138 55.5305L37.2046 36.6923C37.0606 36.0768 37.0417 35.4386 37.1493 34.8157C37.257 34.1927 37.4888 33.5978 37.831 33.0663C38.1732 32.5348 38.6188 32.0775 39.1413 31.7217C39.6639 31.366 40.2526 31.1189 40.8726 30.9953C41.4925 30.8717 42.131 30.874 42.75 31.0022C43.3691 31.1304 43.956 31.3817 44.4759 31.7414C44.9958 32.101 45.438 32.5615 45.7763 33.0955C46.1146 33.6296 46.342 34.2262 46.445 34.8499L49.3512 52.4338L56.8444 75.7023C56.9892 76.1506 56.9632 76.6366 56.7715 77.0669C56.5797 77.4973 56.2357 77.8415 55.8055 78.0336L51.334 80.0368C51.0881 80.1468 50.8217 80.2036 50.5523 80.2036Z" 
fill="#ffc5e0"/>
<path d="M7.89644 80.2034C7.62705 80.2035 7.36068 80.1466 7.11478 80.0366L2.64327 78.0335C2.21308 77.8414 1.86907 77.4971 1.67733 77.0668C1.48558 76.6365 1.45963 76.1504 1.60448 75.7021L9.10508 52.4029L12.0037 34.8497C12.1068 34.2261 12.3342 33.6295 12.6725 33.0955C13.0108 32.5615 13.453 32.1009 13.9729 31.7413C14.4928 31.3817 15.0797 31.1304 15.6988 31.0022C16.3178 30.874 16.9562 30.8717 17.5762 30.9953C18.1961 31.1189 18.7849 31.366 19.3074 31.7217C19.8299 32.0775 20.2755 32.5347 20.6177 33.0662C20.9599 33.5978 21.1918 34.1927 21.2994 34.8156C21.407 35.4385 21.3882 36.0767 21.2442 36.6922L16.8386 55.5171L9.72611 78.8487C9.60672 79.2408 9.36442 79.5842 9.03497 79.8281C8.70551 80.0721 8.30637 80.2036 7.89644 80.2034V80.2034Z" 
fill="#ffc5e0"/>
<path d="M30.2773 0.626049C27.3761 -0.630679 23.5862 0.93308 22.4154 3.86994C21.6867 5.69773 21.909 7.75927 22.3108 9.68552C22.7125 11.6118 23.2853 13.5341 23.2237 15.5008C23.1621 17.4675 22.315 19.5549 20.5704 20.4647C19.5279 21.0084 18.3085 21.0689 17.1784 21.3931C16.0482 21.7173 14.8818 22.4754 14.719 23.6398C14.4728 25.4013 16.6095 26.743 16.5953 28.5215C16.5801 30.406 14.2251 31.5251 13.9199 33.3848C13.8673 33.9293 13.9539 34.4782 14.1717 34.98C14.3894 35.4818 14.7312 35.9201 15.1647 36.2536C16.0393 36.9105 17.033 37.3915 18.0907 37.6701C26.229 40.2713 34.8942 40.7651 43.2753 39.1051C44.9406 38.7729 46.6546 38.3237 47.9486 37.2241C49.2425 36.1244 49.9826 34.1994 49.2389 32.6728C48.1238 30.3842 44.5835 30.2538 43.3497 28.0269C42.6096 26.6912 42.9503 25.0513 43.1061 23.5322C43.5086 19.609 44.437 15.0259 43.4624 11.2045C42.5819 7.75191 40.6699 3.2905 37.9372 1.00404C35.9763 -0.636603 32.2328 0.110901 29.7267 0.617022L30.2773 0.626049Z" fill="#342C33"/>
</svg>
